<?xml version="1.0" encoding="utf-8"?>
<!-- Generator: Adobe Illustrator 19.2.0, SVG Export Plug-In . SVG Version: 6.00 Build 0)  -->
<svg version="1.1" xmlns="http://www.w3.org/2000/svg" xmlns:xlink="http://www.w3.org/1999/xlink" x="0px" y="0px" width="283px"
	 height="44px" viewBox="0 0 283 44" style="enable-background:new 0 0 283 44;" xml:space="preserve">
<style type="text/css">
	.st0{fill:#FFFFFF;}
	.st1{display:none;}
	.st2{display:inline;}
</style>
<g id="Слой_1">
	<path id="logo" class="st0" d="M32.3,36.9C32.3,36.9,32.3,36.9,32.3,36.9l-0.1-0.2C32.2,37,32.1,37.3,32.3,36.9 M32.1,36.5l0.1,0.2
		C32.2,36.6,32.2,36.5,32.1,36.5 M75.6,38.9L71,40c-3,0.6-6,0.8-9,0.7c-3.7,0-7.4-0.5-11-1.4l-6.9-1.7c-2.4-0.7-4.8-1.2-7.2-1.5
		c-0.6-0.1-1.1-0.1-1.6-0.2c-0.1,0-0.2,0-0.2,0v0c-0.8,0-2.4,0.5-2.7,1l0.4,0.7c0.3,0,0.5-0.7,0.8-0.7c0.6,0,0.8-0.5,1.6-0.4
		c3.1,0.2,6.1,0.8,9,1.6l5.5,1.6c4.1,1,8.2,1.5,12.4,1.5h0C66.7,41.2,71.3,40.4,75.6,38.9 M80.7,36.1l0.5,0.1c1.8-1,3.5-2.2,5.1-3.5
		C84.5,33.9,82.7,35.1,80.7,36.1 M93.5,22.3c0,0,0,0.1,0,0.1L93.5,22.3L93.5,22.3L93.5,22.3z M88.9,29.8c-4.7,3.7-11.6,3.8-22.1,0.1
		c-5.6-1.9-14.4-6.3-23.2-9.7c-7.9-3-16.6-6-24-6c-5.9,0-9.6,1.8-11.5,4.4c-0.6,0.7-1,1.6-1.2,2.5c0,0.1,0,0.1-0.1,0.2
		c-0.5,2.4,0.1,4.9,1.6,6.8c2.6,3.6,7.7,7.5,7.7,7.5s-4.1-3.7-5.4-5.3c-2-2.2-2.8-3.7-3.1-5.2c-0.6-2.6,0-4.5,1.3-5.8
		c2.1-1.9,5-2.7,9.5-2.8c7.6-0.2,17,3,24.6,5.9c5.9,2.2,17,7.1,22.5,9c10.8,3.7,19.2,3.4,24.1-1.9l0,0c0.3-0.3,0.5-0.6,0.7-0.9
		c0,0,0,0,0,0l0,0c0.6-0.7,1.1-1.5,1.7-2.2C91,27.6,90,28.7,88.9,29.8 M93,21.6c0,2.8-3.2,5.1-8,5.1c-6.5,0-14.8-4.4-16.5-5.2
		c1.8-0.8,9.9-5,16.5-5C89.9,16.6,93,18.8,93,21.6 M26.5,39.1c0,1.5,1.6,3.1,4.4,3.6c4.4,0.9,11.2-0.8,13.2-1.3l7.1-1.8l-7-2.1
		c-1.9-0.6-8.7-2.5-13.1-1.8C28.2,36.1,26.6,37.6,26.5,39.1 M89.7,17.4c2.1,0.9,3.3,2.5,3.3,4.2c0,2.8-3.2,5.1-8,5.1
		c-6.5,0-14.8-4.4-16.5-5.2c-4-2-15-7.9-18.8-9.9C39,5.8,24.1-1.6,11.3,0.3C5.8,1.2,1.6,4.2,0.4,8.7c-0.5,2-0.5,4,0,6
		c0.8,3.3,2.3,6.4,4.4,9.2c0,0-3.2-5.6-3.7-9c-0.9-6,1.1-8,3.1-9.6s5.8-2.6,9.4-2.8c13.5-0.7,28.7,7.7,35.4,11.2
		c4.8,2.4,14.9,7.8,18.8,9.6c2.2,1.1,9.7,4.5,17.1,4.5c4.8,0,7.6-1.6,8.6-3.8C94.7,20.6,92.5,18.5,89.7,17.4 M60.1,35.3
		c-8.7-2.7-23.4-9.2-33.2-8.8c-3.4,0.2-5.8,1-7.7,2.6c-2.1,1.9-2.7,4.6-1.3,6.8c1.6,2.5,7.7,5.1,7.7,5.1s-4.5-2.5-6-4
		c-1.1-1-1.7-2.5-1.5-3.9c0.3-1.6,1.4-2.8,2.9-3.4c2-0.7,4.1-1.1,6.2-1c10.3,0,24.1,6.1,32.7,8.4c7.1,1.9,13.6,2.8,21.1-0.9
		c0.8-0.5,1.6-0.9,2.4-1.4C73.9,40,64.9,36.8,60.1,35.3 M44.1,37.8l6.9,1.9"/>
	<path id="Ресурсы_создают_возможности" class="st0" d="M109.4,40.9v-3.3h2.1c0.9,0.1,1.7-0.2,2.4-0.7
		c0.7-0.8,0.9-1.9,0.4-2.9c-0.1-0.3-0.4-0.6-0.7-0.8c-0.3-0.2-0.7-0.3-1-0.4c-0.4-0.1-0.8-0.1-1.3-0.1h-3.1v8.2L109.4,40.9
		L109.4,40.9z M109.4,33.6h2.1c0.3,0,0.7,0,1,0.1c0.3,0.1,0.5,0.2,0.7,0.5c0.2,0.3,0.3,0.6,0.3,0.9c0,0.4-0.1,0.8-0.4,1.1
		c-0.4,0.3-1,0.4-1.5,0.4h-2.1C109.4,36.5,109.4,33.6,109.4,33.6z M119.2,39.9c-0.3,0.2-0.6,0.3-0.9,0.3c-0.5,0-0.9-0.2-1.2-0.5
		c-0.4-0.4-0.6-0.9-0.6-1.5h4.4c0-0.1,0-0.2,0-0.3c0.1-0.8-0.2-1.7-0.8-2.3c-0.5-0.5-1.2-0.8-2-0.8c-0.8,0-1.5,0.3-2,0.8
		c-0.6,0.6-0.8,1.5-0.8,2.3c-0.1,0.8,0.2,1.6,0.8,2.3c1,0.9,2.6,1.1,3.8,0.3c0.5-0.4,0.8-0.9,0.9-1.4l-1-0.1
		C119.7,39.3,119.5,39.6,119.2,39.9L119.2,39.9z M117,36.1c0.3-0.3,0.7-0.5,1.2-0.5c0.5,0,0.9,0.2,1.3,0.6c0.2,0.3,0.4,0.7,0.4,1.1
		h-3.3C116.5,36.8,116.7,36.4,117,36.1L117,36.1z M125.9,39.8c-0.3,0.2-0.6,0.4-1,0.4c-0.5,0-0.9-0.2-1.2-0.5
		c-0.4-0.5-0.5-1.1-0.5-1.7c-0.1-0.6,0.1-1.2,0.5-1.7c0.3-0.4,0.8-0.6,1.2-0.5c0.3,0,0.6,0.1,0.9,0.3c0.3,0.2,0.4,0.6,0.5,0.9l1-0.2
		c-0.1-0.5-0.4-1-0.8-1.4c-0.5-0.3-1-0.5-1.6-0.5c-0.5,0-1,0.1-1.4,0.4c-0.4,0.2-0.8,0.6-1,1.1c-0.2,0.5-0.3,1.1-0.3,1.7
		c-0.1,0.8,0.2,1.7,0.7,2.3c0.5,0.5,1.2,0.8,2,0.8c0.6,0,1.2-0.2,1.6-0.6c0.5-0.4,0.8-1,0.8-1.6l-1-0.1
		C126.4,39.1,126.2,39.5,125.9,39.8L125.9,39.8z M129.3,43.3c0.3,0,0.6-0.1,0.8-0.2c0.3-0.2,0.5-0.4,0.6-0.7
		c0.2-0.4,0.4-0.9,0.6-1.4l2.3-6.1h-1l-1.3,3.5c-0.2,0.4-0.3,0.9-0.4,1.4c-0.1-0.5-0.3-0.9-0.4-1.4l-1.2-3.5h-1.1l2.3,6
		c0,0.1-0.1,0.2-0.1,0.2c-0.1,0.3-0.2,0.5-0.3,0.8c-0.1,0.1-0.2,0.2-0.3,0.3c-0.2,0.1-0.4,0.1-0.5,0.1c-0.2,0-0.4,0-0.6-0.1l0.1,0.9
		C128.9,43.2,129.1,43.3,129.3,43.3L129.3,43.3L129.3,43.3z M135.7,43.2v-2.9c0.2,0.2,0.4,0.4,0.7,0.5c0.3,0.1,0.6,0.2,0.9,0.2
		c1,0,1.9-0.6,2.3-1.5c0.2-0.5,0.3-1.1,0.3-1.6c0-0.5-0.1-1.1-0.3-1.6c-0.2-0.4-0.5-0.8-0.9-1.1c-0.4-0.3-0.9-0.4-1.3-0.4
		c-0.3,0-0.7,0.1-1,0.2c-0.3,0.2-0.5,0.4-0.7,0.7v-0.8h-0.9v8.2L135.7,43.2L135.7,43.2z M136.1,36.2c0.3-0.4,0.7-0.6,1.1-0.6
		c0.4,0,0.9,0.2,1.1,0.6c0.3,0.5,0.5,1.1,0.5,1.7c0.1,0.6-0.1,1.3-0.5,1.8c-0.3,0.4-0.7,0.6-1.2,0.6c-0.4,0-0.9-0.2-1.1-0.5
		c-0.3-0.5-0.5-1.1-0.5-1.7C135.6,37.3,135.8,36.7,136.1,36.2L136.1,36.2z M144.9,39.8c-0.3,0.2-0.6,0.4-1,0.4
		c-0.5,0-0.9-0.2-1.2-0.5c-0.4-0.5-0.5-1.1-0.5-1.7c-0.1-0.6,0.1-1.2,0.5-1.7c0.3-0.4,0.8-0.6,1.2-0.5c0.3,0,0.6,0.1,0.9,0.3
		c0.3,0.2,0.4,0.6,0.5,0.9l1-0.2c-0.1-0.5-0.4-1-0.8-1.4c-0.5-0.3-1-0.5-1.6-0.5c-0.5,0-1,0.1-1.4,0.4c-0.4,0.2-0.8,0.6-1,1.1
		c-0.2,0.5-0.3,1.1-0.3,1.7c-0.1,0.8,0.2,1.7,0.7,2.3c0.5,0.5,1.2,0.8,2,0.8c0.6,0,1.2-0.2,1.6-0.6c0.5-0.4,0.8-1,0.8-1.6l-1-0.1
		C145.4,39.1,145.2,39.5,144.9,39.8L144.9,39.8z M153.4,40.9h1v-6h-1V40.9L153.4,40.9z M147.7,40.9h2.5c0.6,0.1,1.3-0.1,1.8-0.5
		c0.4-0.3,0.6-0.8,0.6-1.3c0-0.5-0.2-1-0.7-1.3c-0.6-0.4-1.3-0.5-1.9-0.5h-1.3v-2.3h-1L147.7,40.9L147.7,40.9z M148.7,38.1h1.2
		c0.5-0.1,0.9,0,1.3,0.3c0.2,0.2,0.3,0.4,0.3,0.7c0,0.3-0.1,0.6-0.4,0.7c-0.4,0.2-0.9,0.3-1.4,0.2h-1.1L148.7,38.1L148.7,38.1z
		 M163.3,39.8c-0.3,0.2-0.6,0.4-1,0.4c-0.5,0-0.9-0.2-1.2-0.5c-0.4-0.5-0.5-1.1-0.5-1.7c-0.1-0.6,0.1-1.2,0.5-1.7
		c0.3-0.4,0.8-0.6,1.2-0.5c0.3,0,0.6,0.1,0.9,0.3c0.3,0.2,0.4,0.6,0.5,0.9l1-0.2c-0.1-0.5-0.4-1-0.8-1.4c-0.5-0.3-1-0.5-1.6-0.5
		c-0.5,0-1,0.1-1.4,0.4c-0.4,0.2-0.8,0.6-1,1.1c-0.2,0.5-0.3,1.1-0.3,1.7c-0.1,0.8,0.2,1.7,0.7,2.3c0.5,0.5,1.2,0.8,2,0.8
		c0.6,0,1.2-0.2,1.6-0.6c0.5-0.4,0.8-1,0.8-1.6l-1-0.1C163.8,39.1,163.6,39.5,163.3,39.8L163.3,39.8z M166.6,40.2
		c0.5,0.5,1.3,0.8,2,0.8c0.5,0,1-0.1,1.4-0.4c0.4-0.2,0.8-0.6,1-1c0.3-0.6,0.4-1.2,0.3-1.8c0-0.8-0.2-1.6-0.8-2.2
		c-0.5-0.5-1.3-0.8-2-0.8c-0.7,0-1.4,0.2-1.9,0.7c-0.7,0.6-1,1.5-0.9,2.5C165.8,38.7,166.1,39.6,166.6,40.2L166.6,40.2z M167.4,36.2
		c0.6-0.7,1.7-0.8,2.4-0.2c0.1,0,0.1,0.1,0.2,0.2c0.4,0.5,0.5,1.1,0.5,1.7c0,0.6-0.1,1.2-0.5,1.7c-0.6,0.7-1.7,0.8-2.3,0.2
		c-0.1-0.1-0.1-0.1-0.2-0.2c-0.4-0.5-0.5-1.1-0.5-1.7C166.8,37.3,167,36.7,167.4,36.2L167.4,36.2z M174.4,38.2c0.3,0,0.6,0,0.9,0.1
		c0.2,0.1,0.3,0.2,0.5,0.3c0.3,0.4,0.3,1-0.1,1.3c-0.2,0.2-0.5,0.3-0.9,0.3c-0.3,0-0.6-0.1-0.9-0.3c-0.3-0.2-0.5-0.5-0.5-0.9
		l-0.9,0.2c0.1,1.2,1.2,2,2.3,1.8c0,0,0,0,0,0c0.6,0,1.2-0.1,1.6-0.5c0.4-0.3,0.6-0.8,0.6-1.3c0-0.3-0.1-0.6-0.2-0.9
		c-0.2-0.3-0.4-0.5-0.7-0.6c0.4-0.2,0.7-0.7,0.7-1.2c0-0.5-0.2-0.9-0.5-1.2c-1-0.8-2.4-0.7-3.2,0.3c-0.2,0.2-0.4,0.5-0.4,0.8l1,0.2
		c0.1-0.6,0.6-1,1.2-1c0.3,0,0.5,0.1,0.7,0.2c0.2,0.2,0.3,0.4,0.3,0.7c0,0.2-0.1,0.4-0.2,0.6c-0.1,0.1-0.3,0.2-0.4,0.3
		c-0.3,0-0.6,0.1-0.9,0v0.8L174.4,38.2L174.4,38.2L174.4,38.2z M178.1,40h-0.5v2.5h0.8v-1.7h4.7v1.7h0.8V40h-0.7v-5.1h-4.2
		C179.1,37.4,178.8,39.1,178.1,40L178.1,40L178.1,40z M182.3,35.7V40h-3.2c0.6-1.3,0.9-2.8,0.9-4.3H182.3L182.3,35.7z M189.5,40.9
		h1.1c-0.1-0.2-0.2-0.5-0.3-0.7c-0.1-0.6-0.1-1.2-0.1-1.8V37c0-0.3,0-0.6-0.1-0.9c0-0.3-0.2-0.5-0.3-0.7c-0.2-0.2-0.4-0.4-0.7-0.5
		c-0.4-0.1-0.8-0.2-1.2-0.2c-0.5,0-0.9,0.1-1.4,0.2c-0.3,0.1-0.7,0.3-0.9,0.6c-0.2,0.3-0.4,0.7-0.4,1l1,0.1c0.1-0.3,0.2-0.7,0.5-0.9
		c0.3-0.2,0.7-0.3,1.1-0.2c0.4,0,0.8,0.1,1.2,0.3c0.2,0.2,0.3,0.6,0.3,0.9c0,0,0,0.1,0,0.3c-0.6,0.2-1.2,0.3-1.8,0.3
		c-0.3,0-0.6,0.1-0.9,0.2c-0.3,0.1-0.5,0.2-0.7,0.3c-0.2,0.1-0.4,0.3-0.5,0.6c-0.1,0.2-0.2,0.5-0.2,0.8c0,0.5,0.2,0.9,0.5,1.2
		c0.4,0.3,1,0.5,1.5,0.5c0.4,0,0.8-0.1,1.1-0.2c0.4-0.2,0.8-0.4,1.1-0.7C189.3,40.4,189.4,40.6,189.5,40.9L189.5,40.9L189.5,40.9z
		 M189.2,38.2c0,0.3,0,0.7-0.2,1c-0.1,0.3-0.4,0.5-0.7,0.7c-0.3,0.2-0.7,0.3-1,0.3c-0.3,0-0.6-0.1-0.9-0.3c-0.3-0.3-0.4-0.8-0.2-1.2
		c0.1-0.1,0.2-0.3,0.4-0.3c0.3-0.1,0.6-0.2,0.9-0.2c0.6-0.1,1.1-0.2,1.7-0.4L189.2,38.2L189.2,38.2z M192.2,40.9h1v-2.6h1.2
		c0,0.7,0.3,1.5,0.8,2c0.5,0.5,1.1,0.8,1.8,0.7c0.7,0,1.4-0.3,1.9-0.8c0.5-0.7,0.8-1.5,0.7-2.3c0-0.6-0.1-1.2-0.3-1.7
		c-0.2-0.4-0.5-0.7-0.9-1c-0.4-0.3-0.9-0.4-1.4-0.4c-0.6,0-1.3,0.2-1.7,0.7c-0.5,0.5-0.8,1.2-0.8,2h-1.2v-2.5h-1L192.2,40.9
		L192.2,40.9z M198.2,36.2c0.3,0.5,0.4,1.1,0.4,1.7c0.1,0.6-0.1,1.2-0.4,1.7c-0.3,0.3-0.7,0.5-1.1,0.5c-0.4,0-0.9-0.2-1.1-0.6
		c-0.3-0.5-0.5-1.2-0.4-1.8c0-0.6,0.1-1.1,0.4-1.6c0.3-0.4,0.7-0.6,1.2-0.6C197.5,35.6,197.9,35.8,198.2,36.2z M200.4,35.7h1.9v5.1
		h1v-5.1h1.9v-0.8h-4.8L200.4,35.7L200.4,35.7z M210.3,40.9h2.7c0.6,0,1.1-0.1,1.6-0.4c0.4-0.3,0.6-0.8,0.6-1.3
		c0-0.3-0.1-0.6-0.3-0.9c-0.2-0.2-0.4-0.4-0.7-0.5c0.2-0.1,0.4-0.3,0.5-0.5c0.1-0.2,0.2-0.5,0.2-0.7c0-0.3-0.1-0.7-0.3-0.9
		c-0.2-0.2-0.4-0.4-0.7-0.5c-0.4-0.1-0.8-0.2-1.3-0.1h-2.3L210.3,40.9L210.3,40.9z M211.3,35.7h1.1c0.4,0,0.8,0,1.1,0.2
		c0.2,0.1,0.4,0.4,0.3,0.7c0,0.2-0.1,0.4-0.2,0.5c-0.1,0.1-0.3,0.2-0.4,0.3c-0.3,0.1-0.6,0.1-0.9,0.1h-1.1V35.7L211.3,35.7z
		 M211.3,38.2h1.2c0.3,0,0.6,0,1,0.1c0.2,0,0.4,0.1,0.5,0.3c0.1,0.2,0.2,0.3,0.2,0.5c0,0.3-0.1,0.5-0.3,0.7
		c-0.4,0.2-0.8,0.2-1.2,0.2h-1.3L211.3,38.2L211.3,38.2z M217,40.2c0.5,0.5,1.3,0.8,2,0.8c0.5,0,1-0.1,1.4-0.4c0.4-0.2,0.8-0.6,1-1
		c0.3-0.6,0.4-1.2,0.3-1.8c0-0.8-0.2-1.6-0.8-2.2c-0.5-0.5-1.3-0.8-2-0.8c-0.7,0-1.4,0.2-1.9,0.7c-0.7,0.6-1,1.5-0.9,2.5
		C216.2,38.7,216.5,39.6,217,40.2L217,40.2z M217.8,36.2c0.6-0.7,1.7-0.8,2.4-0.2c0.1,0,0.1,0.1,0.2,0.2c0.4,0.5,0.5,1.1,0.5,1.7
		c0,0.6-0.1,1.2-0.5,1.7c-0.6,0.7-1.7,0.8-2.3,0.2c-0.1-0.1-0.1-0.1-0.2-0.2c-0.4-0.5-0.5-1.1-0.5-1.7
		C217.3,37.3,217.4,36.7,217.8,36.2L217.8,36.2z M224.9,38.2c0.3,0,0.6,0,0.9,0.1c0.2,0.1,0.3,0.2,0.5,0.3c0.3,0.4,0.3,1-0.1,1.3
		c-0.2,0.2-0.5,0.3-0.9,0.3c-0.3,0-0.7-0.1-0.9-0.3c-0.3-0.2-0.5-0.5-0.5-0.9l-0.9,0.2c0.1,1.2,1.2,2,2.3,1.8c0,0,0,0,0,0
		c0.6,0,1.2-0.1,1.6-0.5c0.4-0.3,0.6-0.8,0.6-1.3c0-0.6-0.3-1.2-0.9-1.5c0.4-0.2,0.7-0.7,0.7-1.2c0-0.5-0.2-0.9-0.5-1.2
		c-1-0.8-2.4-0.7-3.2,0.3c-0.2,0.2-0.4,0.5-0.4,0.8l1,0.2c0.1-0.6,0.6-1,1.2-1c0.3,0,0.5,0.1,0.7,0.2c0.2,0.2,0.3,0.4,0.3,0.7
		c0,0.2-0.1,0.4-0.2,0.6c-0.1,0.1-0.3,0.2-0.4,0.3c-0.3,0-0.6,0.1-0.9,0v0.8L224.9,38.2L224.9,38.2L224.9,38.2z M229,40.9h1v-5
		l1.7,5h0.9l1.8-4.8v4.8h1v-6h-1.4l-1.7,4.8l-1.6-4.8H229L229,40.9L229,40.9z M237.7,40.2c0.5,0.5,1.3,0.8,2,0.8
		c0.5,0,1-0.1,1.4-0.4c0.4-0.2,0.8-0.6,1-1c0.3-0.6,0.4-1.2,0.3-1.8c0-0.8-0.2-1.6-0.8-2.2c-0.5-0.5-1.3-0.8-2-0.8
		c-0.7,0-1.4,0.2-1.9,0.7c-0.7,0.6-1,1.5-0.9,2.5C236.9,38.7,237.1,39.6,237.7,40.2L237.7,40.2z M238.5,36.2
		c0.6-0.7,1.7-0.8,2.4-0.2c0.1,0,0.1,0.1,0.2,0.2c0.4,0.5,0.5,1.1,0.5,1.7c0,0.6-0.1,1.2-0.5,1.7c-0.6,0.7-1.7,0.8-2.3,0.2
		c-0.1-0.1-0.1-0.1-0.2-0.2c-0.4-0.5-0.5-1.1-0.5-1.7C237.9,37.3,238.1,36.7,238.5,36.2L238.5,36.2z M246.5,34.9v2.6
		c-0.2,0-0.5,0-0.7-0.2c-0.2-0.3-0.4-0.7-0.6-1.1c-0.1-0.3-0.3-0.7-0.5-0.9c-0.1-0.1-0.3-0.2-0.4-0.3c-0.3-0.1-0.5-0.1-0.8-0.1h-0.1
		v0.8l0.3,0c0.1,0,0.3,0,0.4,0.1c0.1,0.1,0.2,0.2,0.3,0.4c0.1,0.4,0.3,0.8,0.5,1.2c0.2,0.2,0.4,0.4,0.6,0.5c-0.6,0.2-1,0.7-1.3,1.2
		l-1.1,1.8h1.1l1.1-1.8c0.1-0.3,0.3-0.5,0.6-0.7c0.2-0.1,0.4-0.2,0.6-0.2v2.8h1v-2.7c0.2,0,0.4,0.1,0.6,0.2c0.2,0.2,0.4,0.5,0.6,0.7
		l1.1,1.8h1.1l-1.1-1.8c-0.3-0.6-0.7-1-1.3-1.2c0.2-0.1,0.4-0.2,0.6-0.4c0.2-0.2,0.3-0.5,0.4-0.8c0.1-0.3,0.2-0.5,0.4-0.7
		c0.2-0.1,0.3-0.1,0.5-0.1l0.3,0v-0.8h-0.4c-0.3,0-0.6,0.1-0.9,0.2c-0.3,0.3-0.5,0.7-0.6,1.1c-0.1,0.4-0.3,0.8-0.6,1.1
		c-0.2,0.1-0.4,0.2-0.7,0.2v-2.6L246.5,34.9L246.5,34.9z M252.1,40.9h1v-2.6h2.8v2.6h1v-6h-1v2.5h-2.8v-2.5h-1V40.9L252.1,40.9z
		 M259.2,40.2c0.5,0.5,1.3,0.8,2,0.8c0.5,0,1-0.1,1.4-0.4c0.4-0.2,0.8-0.6,1-1c0.3-0.6,0.4-1.2,0.3-1.8c0-0.8-0.2-1.6-0.8-2.2
		c-0.5-0.5-1.3-0.8-2-0.8c-0.7,0-1.4,0.2-1.9,0.7c-0.7,0.6-1,1.5-0.9,2.5C258.4,38.7,258.7,39.6,259.2,40.2L259.2,40.2z M260,36.2
		c0.6-0.7,1.7-0.8,2.4-0.2c0.1,0,0.1,0.1,0.2,0.2c0.4,0.5,0.5,1.1,0.5,1.7c0,0.6-0.1,1.2-0.5,1.7c-0.6,0.7-1.7,0.8-2.3,0.2
		c-0.1-0.1-0.1-0.1-0.2-0.2c-0.4-0.5-0.5-1.1-0.5-1.7C259.4,37.3,259.6,36.7,260,36.2L260,36.2z M269,39.8c-0.3,0.2-0.6,0.4-1,0.4
		c-0.5,0-0.9-0.2-1.2-0.5c-0.4-0.5-0.5-1.1-0.5-1.7c-0.1-0.6,0.1-1.2,0.5-1.7c0.3-0.4,0.8-0.6,1.2-0.5c0.3,0,0.6,0.1,0.9,0.3
		c0.3,0.2,0.4,0.6,0.5,0.9l1-0.2c-0.1-0.5-0.4-1-0.8-1.4c-0.5-0.3-1-0.5-1.6-0.5c-0.5,0-1,0.1-1.4,0.4c-0.4,0.2-0.8,0.6-1,1.1
		c-0.2,0.5-0.3,1.1-0.3,1.7c-0.1,0.8,0.2,1.7,0.7,2.3c0.5,0.5,1.2,0.8,2,0.8c0.6,0,1.2-0.2,1.6-0.6c0.5-0.4,0.8-1,0.8-1.6l-1-0.1
		C269.5,39.1,269.3,39.5,269,39.8z M271.2,35.7h1.9v5.1h1v-5.1h1.9v-0.8h-4.8L271.2,35.7L271.2,35.7z M277.4,40.9h1.1l2.8-4.5v4.5h1
		v-6h-1.1l-2.8,4.5v-4.5h-1L277.4,40.9L277.4,40.9z"/>
	<g class="st1">
		<g class="st2">
			<path class="st0" d="M113.3,37.4c-0.1-0.1-0.4-0.3-0.7-0.4c0.8-0.1,1.4-0.4,1.8-0.8c0.4-0.4,0.6-0.9,0.6-1.5
				c0-0.5-0.1-0.9-0.3-1.2c-0.2-0.4-0.5-0.6-0.9-0.8c-0.4-0.1-0.9-0.2-1.7-0.2h-3.6v8.2h1.1v-3.7h1.3c0.3,0,0.5,0,0.6,0
				c0.2,0,0.3,0.1,0.5,0.2c0.2,0.1,0.3,0.3,0.6,0.6c0.2,0.3,0.5,0.6,0.8,1.1l1.1,1.7h1.4l-1.4-2.2C113.9,38,113.6,37.7,113.3,37.4z
				 M111.8,36.1h-2.3v-2.7h2.6c0.6,0,1.1,0.1,1.3,0.4c0.3,0.3,0.4,0.6,0.4,1c0,0.3-0.1,0.5-0.2,0.7s-0.4,0.4-0.6,0.5
				C112.7,36.1,112.3,36.1,111.8,36.1z M119.4,34.6c-0.8,0-1.5,0.3-2,0.8c-0.5,0.6-0.8,1.3-0.8,2.3c0,1,0.3,1.7,0.8,2.3
				c0.5,0.5,1.2,0.8,2.1,0.8c0.7,0,1.3-0.2,1.7-0.5c0.4-0.3,0.8-0.8,0.9-1.4l-1-0.1c-0.2,0.4-0.4,0.7-0.6,0.9
				c-0.3,0.2-0.6,0.3-0.9,0.3c-0.5,0-0.9-0.2-1.2-0.5c-0.3-0.3-0.5-0.8-0.6-1.5h4.4c0-0.1,0-0.2,0-0.3c0-1-0.3-1.7-0.8-2.3
				C120.8,34.9,120.2,34.6,119.4,34.6z M117.7,37.2c0-0.5,0.2-0.9,0.5-1.2c0.3-0.3,0.7-0.5,1.2-0.5c0.5,0,0.9,0.2,1.3,0.6
				c0.2,0.3,0.3,0.6,0.4,1.1H117.7z M127.4,37.6c-0.3-0.1-0.8-0.3-1.5-0.5c-0.5-0.1-0.8-0.2-0.9-0.3c-0.2-0.1-0.3-0.2-0.4-0.3
				c-0.1-0.1-0.1-0.2-0.1-0.4c0-0.2,0.1-0.4,0.3-0.5c0.2-0.2,0.5-0.2,1-0.2c0.4,0,0.7,0.1,0.9,0.3c0.2,0.2,0.3,0.4,0.4,0.7l1-0.1
				c-0.1-0.4-0.2-0.7-0.3-0.9c-0.2-0.2-0.4-0.4-0.8-0.5c-0.4-0.1-0.8-0.2-1.2-0.2c-0.3,0-0.6,0-0.9,0.1c-0.3,0.1-0.5,0.2-0.6,0.3
				c-0.2,0.1-0.4,0.3-0.5,0.6s-0.2,0.5-0.2,0.7c0,0.3,0.1,0.6,0.2,0.8c0.1,0.2,0.4,0.4,0.7,0.6c0.3,0.1,0.8,0.3,1.5,0.5
				c0.6,0.1,0.9,0.3,1,0.3c0.2,0.1,0.3,0.3,0.3,0.5c0,0.3-0.1,0.5-0.3,0.7c-0.2,0.2-0.6,0.3-1,0.3c-0.5,0-0.8-0.1-1.1-0.3
				c-0.3-0.2-0.4-0.5-0.5-0.9l-1,0.2c0.1,0.6,0.4,1.1,0.8,1.4c0.4,0.3,1,0.5,1.8,0.5c0.5,0,0.9-0.1,1.3-0.2c0.4-0.2,0.7-0.4,0.9-0.7
				c0.2-0.3,0.3-0.6,0.3-1c0-0.3-0.1-0.6-0.2-0.9C127.9,37.9,127.6,37.7,127.4,37.6z M132.3,34.6c-0.7,0-1.4,0.2-1.9,0.7
				c-0.6,0.5-0.9,1.3-0.9,2.5c0,1,0.3,1.8,0.8,2.3c0.5,0.5,1.2,0.8,2,0.8c0.5,0,1-0.1,1.4-0.4c0.4-0.2,0.8-0.6,1-1
				c0.2-0.4,0.3-1,0.3-1.8c0-0.9-0.3-1.7-0.8-2.2C133.8,34.9,133.1,34.6,132.3,34.6z M133.5,39.4c-0.3,0.4-0.8,0.6-1.3,0.6
				c-0.5,0-0.9-0.2-1.3-0.6c-0.3-0.4-0.5-1-0.5-1.7c0-0.8,0.2-1.3,0.5-1.7c0.3-0.4,0.8-0.6,1.3-0.6c0.5,0,0.9,0.2,1.2,0.6
				c0.3,0.4,0.5,0.9,0.5,1.7C134,38.5,133.9,39.1,133.5,39.4z M140.5,37.9c0,0.5-0.1,0.9-0.2,1.2c-0.1,0.3-0.3,0.5-0.6,0.6
				c-0.3,0.2-0.6,0.2-0.9,0.2c-0.3,0-0.6-0.1-0.8-0.2c-0.2-0.2-0.3-0.4-0.4-0.6c0-0.2-0.1-0.5-0.1-1.1v-3.3h-1v3.7
				c0,0.4,0,0.7,0.1,0.9c0.1,0.3,0.2,0.5,0.3,0.7c0.1,0.2,0.4,0.4,0.7,0.5c0.3,0.1,0.6,0.2,1,0.2c0.8,0,1.4-0.3,1.9-1v0.9h0.9v-6h-1
				V37.9z M145,34.8c-0.2,0.1-0.4,0.4-0.6,0.8v-0.9h-0.9v6h1v-3.1c0-0.4,0.1-0.8,0.2-1.2c0.1-0.2,0.2-0.4,0.4-0.6
				c0.2-0.1,0.4-0.2,0.6-0.2c0.2,0,0.5,0.1,0.7,0.2l0.3-0.9c-0.4-0.2-0.7-0.3-1-0.3C145.4,34.6,145.2,34.7,145,34.8z M151.1,39.7
				c-0.3,0.2-0.6,0.4-1,0.4c-0.5,0-0.9-0.2-1.2-0.5c-0.3-0.4-0.5-0.9-0.5-1.7c0-0.8,0.2-1.4,0.5-1.7c0.3-0.4,0.7-0.5,1.2-0.5
				c0.3,0,0.6,0.1,0.9,0.3c0.2,0.2,0.4,0.5,0.5,0.9l1-0.2c-0.1-0.6-0.4-1.1-0.8-1.4c-0.4-0.3-0.9-0.5-1.6-0.5c-0.5,0-1,0.1-1.4,0.4
				c-0.4,0.2-0.8,0.6-1,1.1c-0.2,0.5-0.3,1-0.3,1.7c0,1,0.2,1.8,0.7,2.3c0.5,0.5,1.2,0.8,2,0.8c0.7,0,1.2-0.2,1.6-0.6
				c0.4-0.4,0.7-0.9,0.8-1.6l-1-0.1C151.5,39,151.4,39.4,151.1,39.7z M156.3,34.6c-0.8,0-1.5,0.3-2,0.8c-0.5,0.6-0.8,1.3-0.8,2.3
				c0,1,0.3,1.7,0.8,2.3c0.5,0.5,1.2,0.8,2.1,0.8c0.7,0,1.3-0.2,1.7-0.5s0.8-0.8,0.9-1.4l-1-0.1c-0.2,0.4-0.4,0.7-0.6,0.9
				c-0.3,0.2-0.6,0.3-0.9,0.3c-0.5,0-0.9-0.2-1.2-0.5c-0.3-0.3-0.5-0.8-0.6-1.5h4.4c0-0.1,0-0.2,0-0.3c0-1-0.3-1.7-0.8-2.3
				C157.8,34.9,157.1,34.6,156.3,34.6z M154.6,37.2c0-0.5,0.2-0.9,0.5-1.2c0.3-0.3,0.7-0.5,1.2-0.5c0.5,0,0.9,0.2,1.3,0.6
				c0.2,0.3,0.3,0.6,0.4,1.1H154.6z M164.3,37.6c-0.3-0.1-0.8-0.3-1.5-0.5c-0.5-0.1-0.8-0.2-0.9-0.3c-0.2-0.1-0.3-0.2-0.4-0.3
				c-0.1-0.1-0.1-0.2-0.1-0.4c0-0.2,0.1-0.4,0.3-0.5c0.2-0.2,0.5-0.2,1-0.2c0.4,0,0.7,0.1,0.9,0.3c0.2,0.2,0.3,0.4,0.4,0.7l1-0.1
				c-0.1-0.4-0.2-0.7-0.3-0.9c-0.2-0.2-0.4-0.4-0.8-0.5c-0.4-0.1-0.8-0.2-1.2-0.2c-0.3,0-0.6,0-0.9,0.1c-0.3,0.1-0.5,0.2-0.6,0.3
				c-0.2,0.1-0.4,0.3-0.5,0.6c-0.1,0.2-0.2,0.5-0.2,0.7c0,0.3,0.1,0.6,0.2,0.8c0.1,0.2,0.4,0.4,0.7,0.6c0.3,0.1,0.8,0.3,1.5,0.5
				c0.6,0.1,0.9,0.3,1,0.3c0.2,0.1,0.3,0.3,0.3,0.5c0,0.3-0.1,0.5-0.3,0.7c-0.2,0.2-0.6,0.3-1,0.3c-0.5,0-0.8-0.1-1.1-0.3
				c-0.3-0.2-0.4-0.5-0.5-0.9l-1,0.2c0.1,0.6,0.4,1.1,0.8,1.4c0.4,0.3,1,0.5,1.8,0.5c0.5,0,0.9-0.1,1.3-0.2c0.4-0.2,0.7-0.4,0.9-0.7
				c0.2-0.3,0.3-0.6,0.3-1c0-0.3-0.1-0.6-0.2-0.9C164.8,37.9,164.6,37.7,164.3,37.6z M173.8,39.7c-0.3,0.2-0.6,0.4-1,0.4
				c-0.5,0-0.9-0.2-1.2-0.5c-0.3-0.4-0.5-0.9-0.5-1.7c0-0.8,0.2-1.4,0.5-1.7c0.3-0.4,0.7-0.5,1.2-0.5c0.3,0,0.6,0.1,0.9,0.3
				c0.2,0.2,0.4,0.5,0.5,0.9l1-0.2c-0.1-0.6-0.4-1.1-0.8-1.4c-0.4-0.3-0.9-0.5-1.6-0.5c-0.5,0-1,0.1-1.4,0.4c-0.4,0.2-0.8,0.6-1,1.1
				c-0.2,0.5-0.3,1-0.3,1.7c0,1,0.2,1.8,0.7,2.3c0.5,0.5,1.2,0.8,2,0.8c0.7,0,1.2-0.2,1.6-0.6c0.4-0.4,0.7-0.9,0.8-1.6l-1-0.1
				C174.2,39,174.1,39.4,173.8,39.7z M178.1,34.8c-0.2,0.1-0.4,0.4-0.6,0.8v-0.9h-0.9v6h1v-3.1c0-0.4,0.1-0.8,0.2-1.2
				c0.1-0.2,0.2-0.4,0.4-0.6c0.2-0.1,0.4-0.2,0.6-0.2c0.2,0,0.5,0.1,0.7,0.2l0.3-0.9c-0.4-0.2-0.7-0.3-1-0.3
				C178.5,34.6,178.3,34.7,178.1,34.8z M183.2,34.6c-0.8,0-1.5,0.3-2,0.8c-0.5,0.6-0.8,1.3-0.8,2.3c0,1,0.3,1.7,0.8,2.3
				c0.5,0.5,1.2,0.8,2.1,0.8c0.7,0,1.3-0.2,1.7-0.5s0.8-0.8,0.9-1.4l-1-0.1c-0.2,0.4-0.4,0.7-0.6,0.9c-0.3,0.2-0.6,0.3-0.9,0.3
				c-0.5,0-0.9-0.2-1.2-0.5c-0.3-0.3-0.5-0.8-0.6-1.5h4.4c0-0.1,0-0.2,0-0.3c0-1-0.3-1.7-0.8-2.3C184.7,34.9,184,34.6,183.2,34.6z
				 M181.6,37.2c0-0.5,0.2-0.9,0.5-1.2c0.3-0.3,0.7-0.5,1.2-0.5c0.5,0,0.9,0.2,1.3,0.6c0.2,0.3,0.3,0.6,0.4,1.1H181.6z M192.4,38.2
				v-1.3c0-0.4,0-0.8-0.1-0.9c-0.1-0.3-0.2-0.5-0.3-0.7c-0.1-0.2-0.4-0.3-0.7-0.5c-0.3-0.1-0.7-0.2-1.2-0.2c-0.5,0-1,0.1-1.4,0.2
				c-0.4,0.1-0.7,0.3-0.9,0.6c-0.2,0.3-0.4,0.6-0.4,1l1,0.1c0.1-0.4,0.3-0.7,0.5-0.9c0.2-0.2,0.6-0.2,1.1-0.2c0.5,0,0.9,0.1,1.2,0.3
				c0.2,0.2,0.3,0.5,0.3,0.9c0,0,0,0.1,0,0.3c-0.4,0.1-1,0.3-1.8,0.3c-0.4,0-0.7,0.1-0.9,0.2c-0.3,0.1-0.5,0.2-0.7,0.3
				c-0.2,0.1-0.4,0.3-0.5,0.6c-0.1,0.2-0.2,0.5-0.2,0.8c0,0.5,0.2,0.9,0.5,1.2c0.4,0.3,0.9,0.5,1.5,0.5c0.4,0,0.8-0.1,1.1-0.2
				c0.3-0.1,0.7-0.4,1.1-0.7c0,0.3,0.1,0.5,0.2,0.7h1.1c-0.1-0.2-0.2-0.5-0.3-0.7C192.4,39.7,192.4,39.2,192.4,38.2z M191.4,38.1
				c0,0.4-0.1,0.8-0.2,1c-0.1,0.3-0.4,0.5-0.7,0.7c-0.3,0.2-0.6,0.3-1,0.3c-0.4,0-0.7-0.1-0.9-0.3c-0.2-0.2-0.3-0.4-0.3-0.7
				c0-0.2,0-0.3,0.1-0.5c0.1-0.1,0.2-0.3,0.4-0.3c0.2-0.1,0.5-0.1,0.9-0.2c0.7-0.1,1.3-0.2,1.7-0.4V38.1z M196.1,39.8
				c-0.1,0-0.3,0-0.3-0.1c-0.1,0-0.1-0.1-0.2-0.2c0-0.1-0.1-0.3-0.1-0.6v-3.5h1v-0.8h-1v-2.1l-1,0.6v1.5h-0.7v0.8h0.7V39
				c0,0.6,0,1,0.1,1.2c0.1,0.2,0.2,0.3,0.4,0.5c0.2,0.1,0.5,0.2,0.9,0.2c0.2,0,0.5,0,0.8-0.1l-0.1-0.9
				C196.4,39.8,196.3,39.8,196.1,39.8z M200.4,34.6c-0.8,0-1.5,0.3-2,0.8c-0.5,0.6-0.8,1.3-0.8,2.3c0,1,0.3,1.7,0.8,2.3
				c0.5,0.5,1.2,0.8,2.1,0.8c0.7,0,1.3-0.2,1.7-0.5s0.8-0.8,0.9-1.4l-1-0.1c-0.2,0.4-0.4,0.7-0.6,0.9c-0.3,0.2-0.6,0.3-0.9,0.3
				c-0.5,0-0.9-0.2-1.2-0.5c-0.3-0.3-0.5-0.8-0.6-1.5h4.4c0-0.1,0-0.2,0-0.3c0-1-0.3-1.7-0.8-2.3C201.9,34.9,201.2,34.6,200.4,34.6z
				 M198.7,37.2c0-0.5,0.2-0.9,0.5-1.2c0.3-0.3,0.7-0.5,1.2-0.5c0.5,0,0.9,0.2,1.3,0.6c0.2,0.3,0.3,0.6,0.4,1.1H198.7z M210.8,34.6
				c-0.7,0-1.4,0.2-1.9,0.7c-0.6,0.5-0.9,1.3-0.9,2.5c0,1,0.3,1.8,0.8,2.3c0.5,0.5,1.2,0.8,2,0.8c0.5,0,1-0.1,1.4-0.4
				c0.4-0.2,0.8-0.6,1-1c0.2-0.4,0.3-1,0.3-1.8c0-0.9-0.3-1.7-0.8-2.2C212.3,34.9,211.6,34.6,210.8,34.6z M212.1,39.4
				c-0.3,0.4-0.8,0.6-1.3,0.6c-0.5,0-0.9-0.2-1.3-0.6c-0.3-0.4-0.5-1-0.5-1.7c0-0.8,0.2-1.3,0.5-1.7c0.3-0.4,0.8-0.6,1.3-0.6
				c0.5,0,0.9,0.2,1.2,0.6c0.3,0.4,0.5,0.9,0.5,1.7C212.6,38.5,212.4,39.1,212.1,39.4z M219.2,35c-0.4-0.3-0.8-0.4-1.3-0.4
				c-0.4,0-0.7,0.1-1,0.2c-0.3,0.2-0.5,0.4-0.7,0.7v-0.8h-0.9V43h1v-2.9c0.2,0.2,0.4,0.4,0.7,0.5c0.3,0.1,0.6,0.2,0.9,0.2
				c0.5,0,0.9-0.1,1.3-0.4c0.4-0.3,0.7-0.6,1-1.1c0.2-0.5,0.3-1,0.3-1.6c0-0.6-0.1-1.1-0.3-1.6C219.9,35.6,219.6,35.3,219.2,35z
				 M218.8,39.4c-0.3,0.4-0.7,0.6-1.2,0.6c-0.4,0-0.8-0.2-1.1-0.6c-0.3-0.4-0.5-0.9-0.5-1.7s0.2-1.4,0.5-1.8
				c0.3-0.4,0.7-0.6,1.1-0.6c0.4,0,0.8,0.2,1.1,0.6c0.3,0.4,0.5,0.9,0.5,1.7C219.3,38.5,219.2,39.1,218.8,39.4z M226,35
				c-0.4-0.3-0.8-0.4-1.3-0.4c-0.4,0-0.7,0.1-1,0.2c-0.3,0.2-0.5,0.4-0.7,0.7v-0.8H222V43h1v-2.9c0.2,0.2,0.4,0.4,0.7,0.5
				c0.3,0.1,0.6,0.2,0.9,0.2c0.5,0,0.9-0.1,1.3-0.4c0.4-0.3,0.7-0.6,1-1.1c0.2-0.5,0.3-1,0.3-1.6c0-0.6-0.1-1.1-0.3-1.6
				C226.7,35.6,226.4,35.3,226,35z M225.6,39.4c-0.3,0.4-0.7,0.6-1.2,0.6c-0.4,0-0.8-0.2-1.1-0.6c-0.3-0.4-0.5-0.9-0.5-1.7
				s0.2-1.4,0.5-1.8c0.3-0.4,0.7-0.6,1.1-0.6c0.4,0,0.8,0.2,1.1,0.6c0.3,0.4,0.5,0.9,0.5,1.7C226.1,38.5,226,39.1,225.6,39.4z
				 M231.2,34.6c-0.7,0-1.4,0.2-1.9,0.7c-0.6,0.5-0.9,1.3-0.9,2.5c0,1,0.3,1.8,0.8,2.3c0.5,0.5,1.2,0.8,2,0.8c0.5,0,1-0.1,1.4-0.4
				c0.4-0.2,0.8-0.6,1-1c0.2-0.4,0.3-1,0.3-1.8c0-0.9-0.3-1.7-0.8-2.2C232.7,34.9,232,34.6,231.2,34.6z M232.4,39.4
				c-0.3,0.4-0.8,0.6-1.3,0.6c-0.5,0-0.9-0.2-1.3-0.6c-0.3-0.4-0.5-1-0.5-1.7c0-0.8,0.2-1.3,0.5-1.7c0.3-0.4,0.8-0.6,1.3-0.6
				c0.5,0,0.9,0.2,1.2,0.6c0.3,0.4,0.5,0.9,0.5,1.7C232.9,38.5,232.8,39.1,232.4,39.4z M237.1,34.8c-0.2,0.1-0.4,0.4-0.6,0.8v-0.9
				h-0.9v6h1v-3.1c0-0.4,0.1-0.8,0.2-1.2c0.1-0.2,0.2-0.4,0.4-0.6c0.2-0.1,0.4-0.2,0.6-0.2c0.2,0,0.5,0.1,0.7,0.2l0.3-0.9
				c-0.4-0.2-0.7-0.3-1-0.3C237.5,34.6,237.3,34.7,237.1,34.8z M241.6,39.8c-0.1,0-0.3,0-0.3-0.1c-0.1,0-0.1-0.1-0.2-0.2
				c0-0.1-0.1-0.3-0.1-0.6v-3.5h1v-0.8h-1v-2.1l-1,0.6v1.5h-0.7v0.8h0.7V39c0,0.6,0,1,0.1,1.2c0.1,0.2,0.2,0.3,0.4,0.5
				c0.2,0.1,0.5,0.2,0.9,0.2c0.2,0,0.5,0,0.8-0.1l-0.1-0.9C241.8,39.8,241.7,39.8,241.6,39.8z M247.2,37.9c0,0.5-0.1,0.9-0.2,1.2
				c-0.1,0.3-0.3,0.5-0.6,0.6c-0.3,0.2-0.6,0.2-0.9,0.2c-0.3,0-0.6-0.1-0.8-0.2c-0.2-0.2-0.3-0.4-0.4-0.6c0-0.2-0.1-0.5-0.1-1.1
				v-3.3h-1v3.7c0,0.4,0,0.7,0.1,0.9c0.1,0.3,0.2,0.5,0.3,0.7c0.1,0.2,0.4,0.4,0.7,0.5c0.3,0.1,0.6,0.2,1,0.2c0.8,0,1.4-0.3,1.9-1
				v0.9h0.9v-6h-1V37.9z M254.7,35.3c-0.1-0.2-0.4-0.4-0.7-0.5c-0.3-0.1-0.6-0.2-1-0.2c-0.8,0-1.5,0.3-1.9,1v-0.8h-0.9v6h1v-3.3
				c0-0.8,0.2-1.3,0.5-1.6c0.3-0.3,0.7-0.4,1.1-0.4c0.3,0,0.5,0.1,0.7,0.2c0.2,0.1,0.3,0.3,0.4,0.5c0.1,0.2,0.1,0.5,0.1,0.9v3.6h1
				V37c0-0.5,0-0.8-0.1-1C254.9,35.8,254.8,35.5,254.7,35.3z M257,40.7h1v-6h-1V40.7z M257,33.6h1v-1.2h-1V33.6z M261.7,39.8
				c-0.1,0-0.3,0-0.3-0.1c-0.1,0-0.1-0.1-0.2-0.2c0-0.1-0.1-0.3-0.1-0.6v-3.5h1v-0.8h-1v-2.1l-1,0.6v1.5h-0.7v0.8h0.7V39
				c0,0.6,0,1,0.1,1.2c0.1,0.2,0.2,0.3,0.4,0.5c0.2,0.1,0.5,0.2,0.9,0.2c0.2,0,0.5,0,0.8-0.1l-0.1-0.9
				C262,39.8,261.8,39.8,261.7,39.8z M263.6,33.6h1v-1.2h-1V33.6z M263.6,40.7h1v-6h-1V40.7z M269,34.6c-0.8,0-1.5,0.3-2,0.8
				c-0.5,0.6-0.8,1.3-0.8,2.3c0,1,0.3,1.7,0.8,2.3c0.5,0.5,1.2,0.8,2.1,0.8c0.7,0,1.3-0.2,1.7-0.5s0.8-0.8,0.9-1.4l-1-0.1
				c-0.2,0.4-0.4,0.7-0.6,0.9c-0.3,0.2-0.6,0.3-0.9,0.3c-0.5,0-0.9-0.2-1.2-0.5c-0.3-0.3-0.5-0.8-0.6-1.5h4.4c0-0.1,0-0.2,0-0.3
				c0-1-0.3-1.7-0.8-2.3C270.4,34.9,269.8,34.6,269,34.6z M267.3,37.2c0-0.5,0.2-0.9,0.5-1.2c0.3-0.3,0.7-0.5,1.2-0.5
				c0.5,0,0.9,0.2,1.3,0.6c0.2,0.3,0.3,0.6,0.4,1.1H267.3z M277.6,38.1c-0.2-0.2-0.4-0.4-0.7-0.5c-0.3-0.1-0.8-0.3-1.5-0.5
				c-0.5-0.1-0.8-0.2-0.9-0.3c-0.2-0.1-0.3-0.2-0.4-0.3c-0.1-0.1-0.1-0.2-0.1-0.4c0-0.2,0.1-0.4,0.3-0.5c0.2-0.2,0.5-0.2,1-0.2
				c0.4,0,0.7,0.1,0.9,0.3c0.2,0.2,0.3,0.4,0.4,0.7l1-0.1c-0.1-0.4-0.2-0.7-0.3-0.9c-0.2-0.2-0.4-0.4-0.8-0.5
				c-0.4-0.1-0.8-0.2-1.2-0.2c-0.3,0-0.6,0-0.9,0.1c-0.3,0.1-0.5,0.2-0.6,0.3c-0.2,0.1-0.4,0.3-0.5,0.6c-0.1,0.2-0.2,0.5-0.2,0.7
				c0,0.3,0.1,0.6,0.2,0.8c0.1,0.2,0.4,0.4,0.7,0.6c0.3,0.1,0.8,0.3,1.5,0.5c0.6,0.1,0.9,0.3,1,0.3c0.2,0.1,0.3,0.3,0.3,0.5
				c0,0.3-0.1,0.5-0.3,0.7c-0.2,0.2-0.6,0.3-1,0.3c-0.5,0-0.8-0.1-1.1-0.3c-0.3-0.2-0.4-0.5-0.5-0.9l-1,0.2c0.1,0.6,0.4,1.1,0.8,1.4
				c0.4,0.3,1,0.5,1.8,0.5c0.5,0,0.9-0.1,1.3-0.2c0.4-0.2,0.7-0.4,0.9-0.7c0.2-0.3,0.3-0.6,0.3-1C277.9,38.6,277.8,38.3,277.6,38.1z
				"/>
		</g>
	</g>
</g>
<g id="Слой_2">
	<g>
		<path class="st0" d="M124.1,8.8c-1.5,0.1-1.7,0.5-1.6,1.6l0.8,9.9c0.1,1.3,0.3,1.7,1.5,1.7V23h-5.6v-0.9c1.5,0,1.6-0.5,1.5-1.6
			l-0.6-7.4c0-0.6-0.1-1.6-0.1-2.2v-0.5h-0.1c-0.1,0.4-0.3,1.6-0.5,2.4L116.6,23h-1.7l-2.9-9.5c-0.3-1-0.6-2.5-0.6-3h-0.1
			c0,0.4-0.1,1.7-0.1,2.9l-0.4,7.1c-0.1,1.1,0,1.6,1.5,1.6V23h-4.5v-0.9c1.2,0,1.4-0.4,1.5-1.7l0.7-9.9c0.1-1.1,0-1.6-1.6-1.6V8h4.8
			l2.7,8.6c0.3,1,0.5,2.3,0.5,2.8h0.1c0.1-0.5,0.3-1.7,0.5-2.7l2.4-8.6h4.9V8.8z"/>
		<g>
			<path class="st0" d="M134.2,20.8l0.5,0.8c-1.1,1-2.4,1.6-4.1,1.6c-3.2,0-5-2.1-5-5.7c0-3.6,2-5.7,4.9-5.7c3,0,4.5,1.9,4.5,5.3
				v0.8h-6.6c0.1,2.8,1,3.8,3.1,3.8C132.3,21.6,133.4,21.3,134.2,20.8z M128.3,16.5h3.9c0-2.6-0.5-3.5-1.9-3.5
				C129.2,13,128.5,13.8,128.3,16.5z"/>
			<path class="st0" d="M142.5,13.4v7.2c0,1.3,0.3,1.5,1.4,1.5V23h-5.4v-0.9c1.1-0.1,1.4-0.3,1.4-1.5v-7.2h-1.1
				c-1.2,0-1.4,0.6-1.8,2.3h-1.3l0.2-3.6h10.4l0.2,3.6h-1.2c-0.4-1.7-0.6-2.3-1.8-2.3H142.5z"/>
			<path class="st0" d="M159.3,13v-0.9h9.6V13c-1.1,0.1-1.4,0.3-1.4,1.6v6c0,1.3,0.3,1.5,1.4,1.5V23h-5.2v-0.9
				c1-0.1,1.3-0.3,1.3-1.5v-7.2h-2.8c0,2.6,0,4.6-0.4,6.3c-0.6,2.5-1.3,3.5-3.7,3.5l-0.2-1.7c0.9-0.3,1.3-0.5,1.8-1.1
				c1.1-1.3,1.1-3.3,1.1-5.8C160.7,13.3,160.4,13.1,159.3,13z"/>
			<path class="st0" d="M171.1,13v-0.9h9.6V13c-1.1,0.1-1.4,0.3-1.4,1.6v6c0,1.3,0.3,1.5,1.4,1.5V23h-5.2v-0.9
				c1-0.1,1.3-0.3,1.3-1.5v-7.2h-2.8c0,2.6,0,4.6-0.4,6.3c-0.6,2.5-1.3,3.5-3.8,3.5l-0.2-1.7c0.9-0.3,1.4-0.5,1.9-1.1
				c1.1-1.3,1.1-3.3,1.1-5.8C172.4,13.3,172.2,13.1,171.1,13z"/>
			<path class="st0" d="M186.9,23.2c-3.1,0-5.1-2.1-5.1-5.7c0-3.5,2.1-5.7,5.2-5.7c3.1,0,5.1,2.1,5.1,5.7
				C192.1,21.3,189.8,23.2,186.9,23.2z M186.9,13c-1.7,0-2.3,1.3-2.3,4.4c0,3.1,0.6,4.6,2.4,4.6c1.5,0,2.3-1.5,2.3-4.5
				C189.2,14.2,188.4,13,186.9,13z"/>
			<path class="st0" d="M201.4,17.8c0-1.3,0.1-2.1,0.2-2.9h-0.1c-0.2,0.7-0.4,1.2-1,2l-3.1,4.7c-0.3,0.4-0.3,0.8-0.3,1.4h-4v-0.9
				c1.1-0.1,1.4-0.3,1.4-1.5v-6c0-1.3-0.3-1.5-1.4-1.6v-0.9h5.2V13c-1,0.1-1.3,0.3-1.3,1.6v2.7c0,1.3-0.1,2.2-0.2,2.9h0.1
				c0.2-0.7,0.4-1.2,1-2l3.1-4.7c0.3-0.4,0.3-0.8,0.3-1.4h4V13c-1.1,0.1-1.4,0.3-1.4,1.6v6c0,1.3,0.3,1.5,1.4,1.5V23h-5.2v-0.9
				c1-0.1,1.3-0.3,1.3-1.5V17.8z"/>
			<path class="st0" d="M213.8,13v-0.9h5.2V13c-1.1,0.1-1.4,0.3-1.4,1.6v6c0,1.3,0.3,1.5,1.4,1.5V23h-5.2v-0.9
				c1-0.1,1.3-0.3,1.3-1.5V18h-4.3v2.6c0,1.3,0.2,1.5,1.3,1.5V23h-5.2v-0.9c1.1-0.1,1.4-0.3,1.4-1.5v-6c0-1.3-0.3-1.5-1.4-1.6v-0.9
				h5.2V13c-1,0.1-1.3,0.3-1.3,1.6v2.1h4.3v-2.1C215.1,13.3,214.9,13.1,213.8,13z"/>
			<path class="st0" d="M220.6,13v-0.9h4.6c3.8,0,4.9,0.7,4.9,2.7c0,1-0.6,2-2.4,2.3v0.1c1.9,0.2,2.9,1.1,2.9,2.6c0,2.6-2.1,3-5,3
				h-5.1v-0.9c1.1-0.1,1.4-0.3,1.4-1.5v-6C221.9,13.3,221.7,13.1,220.6,13z M224.5,13.3v3.5h0.9c1.5,0,2-0.5,2-1.8
				c0-1.3-0.6-1.7-2.1-1.7H224.5z M224.5,18v3.7h1.1c1.6,0,2.2-0.3,2.2-1.8c0-1.5-0.5-1.9-2.4-1.9H224.5z"/>
			<path class="st0" d="M240.9,20.8l0.5,0.8c-1.1,1-2.4,1.6-4.1,1.6c-3.2,0-5.1-2.1-5.1-5.7c0-3.6,2-5.7,4.9-5.7
				c3,0,4.5,1.9,4.5,5.3v0.8h-6.6c0.1,2.8,1,3.8,3.1,3.8C239,21.6,240,21.3,240.9,20.8z M235,16.5h3.9c0-2.6-0.5-3.5-1.9-3.5
				C235.8,13,235.1,13.8,235,16.5z"/>
			<path class="st0" d="M251.6,14.9h-1.9c-0.1-1.3-0.4-1.9-1.4-1.9c-1.3,0-2.4,0.9-2.4,4.2c0,3.4,1.1,4.4,2.9,4.4
				c1.1,0,1.7-0.3,2.7-1l0.6,0.7c-1,1.1-2.3,1.8-3.9,1.8c-2.7,0-5-1.8-5-5.5c0-3.8,2.3-5.9,5.2-5.9c1.7,0,2.7,0.4,3.4,0.9V14.9z"/>
			<path class="st0" d="M259.3,13.4v7.2c0,1.3,0.3,1.5,1.4,1.5V23h-5.4v-0.9c1.1-0.1,1.4-0.3,1.4-1.5v-7.2h-1.1
				c-1.2,0-1.4,0.6-1.8,2.3h-1.3l0.2-3.6h10.4l0.2,3.6h-1.2c-0.4-1.7-0.6-2.3-1.8-2.3H259.3z"/>
			<path class="st0" d="M157.3,21.8v0.8c-0.4,0.2-1,0.4-1.7,0.4c-1.4,0-1.9-0.6-2.1-1.5c-0.4,0.7-1.3,1.7-3,1.7c-2,0-3.4-1-3.4-3.1
				c0-2.6,2.1-3.6,5.4-3.6c0.3,0,0.6,0,0.9,0v-1c0-1.8-0.4-2.5-1.7-2.5c-1.5,0-1.8,0.9-2,2H148V13c1-0.6,2.6-1.2,4.2-1.2
				c2.4,0,3.9,1.1,3.9,3.6c0,0.7-0.1,2.5-0.1,4.5C156.1,21.4,156.2,21.8,157.3,21.8z M152.7,17.7c-1.9,0-2.8,0.7-2.8,2.1
				c0,1.4,0.6,1.8,1.6,1.8c0.8,0,1.5-0.5,2-1.2l0.1-2.7C153.3,17.7,152.9,17.7,152.7,17.7z"/>
		</g>
	</g>
</g>
</svg>
